<svg xmlns="http://www.w3.org/2000/svg" viewBox="0 0 144.03 56.12"><title>資產 1</title><g id="圖層_2" data-name="圖層 2"><g id="圖層_3" data-name="圖層 3"><path d="M1.27,55.89a134,134,0,0,1,82-41c3.76-.42,9.24-1.28,12.08,1.95,1.75,2,1.11,7-2.24,6.63l.75.75c-.21-1.76,1-3.06,2.26-4.11a47.19,47.19,0,0,1,4.5-3.09,106.25,106.25,0,0,1,9.47-5.37,104,104,0,0,1,20.79-7.74,102.48,102.48,0,0,1,12.41-2.37c.94-.12,1-1.63,0-1.5A105.71,105.71,0,0,0,99.16,16.17c-2.7,1.76-7.23,4.16-6.77,8a.78.78,0,0,0,.75.75c2.81.32,4.5-2.34,4.69-4.84.25-3.29-2-5.61-5-6.54-3.79-1.17-8.06-.41-11.9.09q-6.31.82-12.53,2.23A136.38,136.38,0,0,0,22,36.21,133.83,133.83,0,0,0,.21,54.82c-.66.71.4,1.77,1.06,1.07Z"/></g></g></svg>