<svg xmlns="http://www.w3.org/2000/svg" viewBox="0 0 58.1 30.6">
    <g>
      <path d="M8.82 5.24a2.18 2.18 0 00-2.22-1.9C5.06 3.34 4 4.8 4 6.92s1.14 3.68 2.66 3.68c1.2 0 1.94-.76 2.16-2.18h4.08a6 6 0 01-1.1 3.14 6.21 6.21 0 01-5.08 2.38C2.8 13.94 0 11 0 6.86A6.54 6.54 0 016.68 0a5.94 5.94 0 016.12 5.16zM17.35 10.1h5.95v3.54H13.21V.3h4.14z"/>
      <path d="M27.38 13.64h-4.14V.3h4.14zM36.74 5.24a2.18 2.18 0 00-2.22-1.9c-1.54 0-2.6 1.46-2.6 3.58s1.14 3.68 2.66 3.68c1.2 0 1.94-.76 2.16-2.18h4.08a6 6 0 01-1.1 3.14 6.21 6.21 0 01-5.08 2.38c-3.92 0-6.72-3-6.72-7.08A6.54 6.54 0 0134.6 0a5.94 5.94 0 016.12 5.16zM54.64 13.64h-5l-3.26-5.18-1.24 1.3v3.88h-4V.3h4v4.34L48.94.3h5.16l-5 5.28z"/>
      <path d="M55.22 8.7l-1-5.26V.3h3.88v3.14l-1 5.26zm2.88 1.08v3.86h-3.86V9.78zM34.22 23.26l-5.56 7.34-5.56-7.34"/>
   </g>
</svg>