<svg xmlns="http://www.w3.org/2000/svg" viewBox="0 0 157.96 60.55"><title>資產 2</title><g id="圖層_2" data-name="圖層 2"><g id="圖層_3" data-name="圖層 3"><path d="M1.32,19.17A86.18,86.18,0,0,1,53.1,1.51,81.87,81.87,0,0,1,80.26,5.76C88.17,8.47,96.11,13.14,101.07,20s5.73,15.64,1.27,23S89.78,55.28,81.78,57.91c-3.41,1.12-7.5,1.75-11,.45A6,6,0,0,1,68,49.27c2.4-3.76,6.8-5.78,10.83-7.23a94.73,94.73,0,0,1,14.12-3.83,97.23,97.23,0,0,1,57.56,6.73q3.24,1.47,6.37,3.18c.84.46,1.6-.84.75-1.3A98.5,98.5,0,0,0,97.26,36,95.15,95.15,0,0,0,82,39.4c-4.49,1.4-9,3-12.65,6.1-3,2.57-5.11,6.42-3.38,10.32,1.54,3.44,5.33,4.66,8.84,4.72a28.08,28.08,0,0,0,11.68-2.83,43,43,0,0,0,11.69-7.39c6.45-5.83,10.29-14.29,8.07-23-2.16-8.46-9.21-14.84-16.57-19C81.43,3.69,71.93,1.4,62.59.45A88.28,88.28,0,0,0,6.06,14c-2,1.3-3.92,2.69-5.8,4.14-.76.59.31,1.65,1.06,1.06Z"/></g></g></svg>